<mxfile host="app.diagrams.net" modified="2021-06-17T08:14:28.339Z" agent="5.0 (Windows NT 10.0; Win64; x64) AppleWebKit/537.36 (KHTML, like Gecko) Chrome/91.0.4472.101 Safari/537.36 Edg/91.0.864.48" etag="gV-qeEoIuXaqkELj75X7" version="14.7.10" type="github">
  <diagram id="C5RBs43oDa-KdzZeNtuy" name="Page-1">
    <mxGraphModel dx="1130" dy="960" grid="1" gridSize="10" guides="1" tooltips="1" connect="1" arrows="1" fold="1" page="1" pageScale="1" pageWidth="827" pageHeight="1169" math="0" shadow="0">
      <root>
        <mxCell id="WIyWlLk6GJQsqaUBKTNV-0" />
        <mxCell id="WIyWlLk6GJQsqaUBKTNV-1" parent="WIyWlLk6GJQsqaUBKTNV-0" />
        <mxCell id="97_k_bN5Us3Cq5SrpHCh-11" value="" style="group" parent="WIyWlLk6GJQsqaUBKTNV-1" vertex="1" connectable="0">
          <mxGeometry x="430" y="250" width="620" height="520" as="geometry" />
        </mxCell>
        <mxCell id="97_k_bN5Us3Cq5SrpHCh-0" value="" style="shape=cylinder3;whiteSpace=wrap;html=1;boundedLbl=1;backgroundOutline=1;size=15;" parent="97_k_bN5Us3Cq5SrpHCh-11" vertex="1">
          <mxGeometry width="620" height="520" as="geometry" />
        </mxCell>
        <mxCell id="97_k_bN5Us3Cq5SrpHCh-1" value="&lt;span style=&quot;color: rgb(50 , 50 , 50) ; font-size: 13px ; font-weight: 700 ; background-color: rgba(255 , 255 , 255 , 0.01)&quot;&gt;EmailUserAgentServer&lt;/span&gt;" style="text;html=1;strokeColor=none;fillColor=none;align=center;verticalAlign=middle;whiteSpace=wrap;rounded=0;" parent="97_k_bN5Us3Cq5SrpHCh-11" vertex="1">
          <mxGeometry x="322.4" y="61.24999999999999" width="49.6" height="20.416666666666664" as="geometry" />
        </mxCell>
        <mxCell id="97_k_bN5Us3Cq5SrpHCh-7" value="&lt;b&gt;Socket&lt;/b&gt;" style="rounded=0;whiteSpace=wrap;html=1;" parent="97_k_bN5Us3Cq5SrpHCh-11" vertex="1">
          <mxGeometry x="12.4" y="102.08333333333333" width="86.8" height="296.04166666666663" as="geometry" />
        </mxCell>
        <mxCell id="97_k_bN5Us3Cq5SrpHCh-5" value="" style="group" parent="97_k_bN5Us3Cq5SrpHCh-11" vertex="1" connectable="0">
          <mxGeometry x="141.35999999999999" y="285.8333333333333" width="441.44" height="193.04000000000008" as="geometry" />
        </mxCell>
        <mxCell id="97_k_bN5Us3Cq5SrpHCh-2" value="" style="rounded=0;whiteSpace=wrap;html=1;" parent="97_k_bN5Us3Cq5SrpHCh-5" vertex="1">
          <mxGeometry x="22.072" width="419.368" height="183.75" as="geometry" />
        </mxCell>
        <mxCell id="97_k_bN5Us3Cq5SrpHCh-6" value="&lt;span style=&quot;color: rgb(50 , 50 , 50) ; font-size: 13px ; font-weight: 700 ; background-color: rgba(255 , 255 , 255 , 0.01)&quot;&gt;EmailUserAgent&lt;/span&gt;" style="text;html=1;strokeColor=none;fillColor=none;align=center;verticalAlign=middle;whiteSpace=wrap;rounded=0;" parent="97_k_bN5Us3Cq5SrpHCh-5" vertex="1">
          <mxGeometry x="207.89437837837838" y="6.125" width="47.72324324324324" height="12.25" as="geometry" />
        </mxCell>
        <mxCell id="97_k_bN5Us3Cq5SrpHCh-29" value="Port 25" style="fontStyle=0;labelPosition=right;verticalLabelPosition=middle;align=left;verticalAlign=middle;spacingLeft=2;html=1;" parent="97_k_bN5Us3Cq5SrpHCh-5" vertex="1">
          <mxGeometry x="218.64" y="164.17000000000007" width="40" height="38.87" as="geometry" />
        </mxCell>
        <mxCell id="97_k_bN5Us3Cq5SrpHCh-37" value="Custom&lt;br&gt;Port" style="text;html=1;strokeColor=none;fillColor=none;align=center;verticalAlign=middle;whiteSpace=wrap;rounded=0;" parent="97_k_bN5Us3Cq5SrpHCh-5" vertex="1">
          <mxGeometry x="-0.36000000000001364" y="74.16666666666674" width="40" height="20" as="geometry" />
        </mxCell>
        <mxCell id="97_k_bN5Us3Cq5SrpHCh-68" style="edgeStyle=none;rounded=0;orthogonalLoop=1;jettySize=auto;html=1;exitX=0;exitY=0.75;exitDx=0;exitDy=0;entryX=0.5;entryY=0;entryDx=0;entryDy=0;startArrow=classic;startFill=1;" parent="97_k_bN5Us3Cq5SrpHCh-5" source="97_k_bN5Us3Cq5SrpHCh-39" target="97_k_bN5Us3Cq5SrpHCh-29" edge="1">
          <mxGeometry relative="1" as="geometry" />
        </mxCell>
        <mxCell id="97_k_bN5Us3Cq5SrpHCh-39" value="Email Service" style="rounded=0;whiteSpace=wrap;html=1;" parent="97_k_bN5Us3Cq5SrpHCh-5" vertex="1">
          <mxGeometry x="268.64" y="23.75" width="141.36" height="136.25" as="geometry" />
        </mxCell>
        <mxCell id="97_k_bN5Us3Cq5SrpHCh-40" value="" style="group" parent="97_k_bN5Us3Cq5SrpHCh-5" vertex="1" connectable="0">
          <mxGeometry x="58.64" y="23.75" width="121.36" height="46.25" as="geometry" />
        </mxCell>
        <mxCell id="97_k_bN5Us3Cq5SrpHCh-49" value="" style="group" parent="97_k_bN5Us3Cq5SrpHCh-40" vertex="1" connectable="0">
          <mxGeometry width="70" height="40" as="geometry" />
        </mxCell>
        <mxCell id="97_k_bN5Us3Cq5SrpHCh-36" value="" style="rounded=0;whiteSpace=wrap;html=1;" parent="97_k_bN5Us3Cq5SrpHCh-49" vertex="1">
          <mxGeometry width="70" height="40" as="geometry" />
        </mxCell>
        <mxCell id="97_k_bN5Us3Cq5SrpHCh-38" value="EmailThread" style="text;html=1;strokeColor=none;fillColor=none;align=center;verticalAlign=middle;whiteSpace=wrap;rounded=0;" parent="97_k_bN5Us3Cq5SrpHCh-49" vertex="1">
          <mxGeometry x="14.999999999999993" y="5.4166666666667425" width="40" height="20" as="geometry" />
        </mxCell>
        <mxCell id="97_k_bN5Us3Cq5SrpHCh-56" value="" style="group" parent="97_k_bN5Us3Cq5SrpHCh-5" vertex="1" connectable="0">
          <mxGeometry x="58.639999999999986" y="124.16999999999996" width="70" height="40" as="geometry" />
        </mxCell>
        <mxCell id="97_k_bN5Us3Cq5SrpHCh-57" value="" style="rounded=0;whiteSpace=wrap;html=1;" parent="97_k_bN5Us3Cq5SrpHCh-56" vertex="1">
          <mxGeometry width="70" height="40" as="geometry" />
        </mxCell>
        <mxCell id="97_k_bN5Us3Cq5SrpHCh-58" value="EmailThread" style="text;html=1;strokeColor=none;fillColor=none;align=center;verticalAlign=middle;whiteSpace=wrap;rounded=0;" parent="97_k_bN5Us3Cq5SrpHCh-56" vertex="1">
          <mxGeometry x="14.999999999999993" y="5.4166666666667425" width="40" height="20" as="geometry" />
        </mxCell>
        <mxCell id="97_k_bN5Us3Cq5SrpHCh-12" style="rounded=0;orthogonalLoop=1;jettySize=auto;html=1;exitX=0;exitY=0;exitDx=0;exitDy=0;entryX=0;entryY=0.25;entryDx=0;entryDy=0;startArrow=classic;startFill=1;dashed=1;" parent="97_k_bN5Us3Cq5SrpHCh-11" source="97_k_bN5Us3Cq5SrpHCh-4" target="97_k_bN5Us3Cq5SrpHCh-7" edge="1">
          <mxGeometry relative="1" as="geometry">
            <mxPoint x="122.76" y="365.4583333333333" as="targetPoint" />
          </mxGeometry>
        </mxCell>
        <mxCell id="97_k_bN5Us3Cq5SrpHCh-13" value="" style="rounded=0;whiteSpace=wrap;html=1;" parent="97_k_bN5Us3Cq5SrpHCh-11" vertex="1">
          <mxGeometry x="173.6" y="102.08333333333333" width="396.8" height="153.125" as="geometry" />
        </mxCell>
        <mxCell id="97_k_bN5Us3Cq5SrpHCh-14" value="&lt;b&gt;WebResources&lt;/b&gt;" style="text;html=1;strokeColor=none;fillColor=none;align=center;verticalAlign=middle;whiteSpace=wrap;rounded=0;" parent="97_k_bN5Us3Cq5SrpHCh-11" vertex="1">
          <mxGeometry x="347.2" y="112.29166666666666" width="49.6" height="20.416666666666664" as="geometry" />
        </mxCell>
        <mxCell id="97_k_bN5Us3Cq5SrpHCh-19" style="edgeStyle=none;rounded=0;orthogonalLoop=1;jettySize=auto;html=1;exitX=0;exitY=0;exitDx=0;exitDy=0;startArrow=classic;startFill=1;dashed=1;" parent="97_k_bN5Us3Cq5SrpHCh-11" source="97_k_bN5Us3Cq5SrpHCh-7" target="97_k_bN5Us3Cq5SrpHCh-13" edge="1">
          <mxGeometry relative="1" as="geometry" />
        </mxCell>
        <mxCell id="97_k_bN5Us3Cq5SrpHCh-20" style="edgeStyle=none;rounded=0;orthogonalLoop=1;jettySize=auto;html=1;exitX=0;exitY=0.5;exitDx=0;exitDy=0;entryX=0;entryY=0.5;entryDx=0;entryDy=0;startArrow=classic;startFill=1;dashed=1;" parent="97_k_bN5Us3Cq5SrpHCh-11" source="97_k_bN5Us3Cq5SrpHCh-7" target="97_k_bN5Us3Cq5SrpHCh-4" edge="1">
          <mxGeometry relative="1" as="geometry" />
        </mxCell>
        <mxCell id="97_k_bN5Us3Cq5SrpHCh-21" style="edgeStyle=none;rounded=0;orthogonalLoop=1;jettySize=auto;html=1;exitX=0;exitY=0.75;exitDx=0;exitDy=0;startArrow=classic;startFill=1;dashed=1;entryX=0;entryY=1;entryDx=0;entryDy=0;" parent="97_k_bN5Us3Cq5SrpHCh-11" source="97_k_bN5Us3Cq5SrpHCh-7" target="97_k_bN5Us3Cq5SrpHCh-4" edge="1">
          <mxGeometry relative="1" as="geometry">
            <mxPoint x="110" y="350" as="targetPoint" />
          </mxGeometry>
        </mxCell>
        <mxCell id="97_k_bN5Us3Cq5SrpHCh-4" value="" style="fontStyle=0;labelPosition=right;verticalLabelPosition=middle;align=left;verticalAlign=middle;spacingLeft=2;html=1;" parent="97_k_bN5Us3Cq5SrpHCh-11" vertex="1">
          <mxGeometry x="141.36" y="310.0033333333333" width="40" height="38.87" as="geometry" />
        </mxCell>
        <mxCell id="97_k_bN5Us3Cq5SrpHCh-15" style="edgeStyle=none;rounded=0;orthogonalLoop=1;jettySize=auto;html=1;exitX=1;exitY=0;exitDx=0;exitDy=40;exitPerimeter=0;entryX=0;entryY=0;entryDx=0;entryDy=0;startArrow=classic;startFill=1;" parent="WIyWlLk6GJQsqaUBKTNV-1" source="97_k_bN5Us3Cq5SrpHCh-8" target="97_k_bN5Us3Cq5SrpHCh-7" edge="1">
          <mxGeometry relative="1" as="geometry" />
        </mxCell>
        <mxCell id="97_k_bN5Us3Cq5SrpHCh-22" value="get Web Resources" style="edgeLabel;html=1;align=center;verticalAlign=middle;resizable=0;points=[];" parent="97_k_bN5Us3Cq5SrpHCh-15" vertex="1" connectable="0">
          <mxGeometry x="-0.4572" y="-2" relative="1" as="geometry">
            <mxPoint x="53" y="-14" as="offset" />
          </mxGeometry>
        </mxCell>
        <mxCell id="97_k_bN5Us3Cq5SrpHCh-16" style="edgeStyle=none;rounded=0;orthogonalLoop=1;jettySize=auto;html=1;exitX=1;exitY=0.5;exitDx=0;exitDy=0;exitPerimeter=0;entryX=0;entryY=0.25;entryDx=0;entryDy=0;startArrow=classic;startFill=1;" parent="WIyWlLk6GJQsqaUBKTNV-1" source="97_k_bN5Us3Cq5SrpHCh-8" target="97_k_bN5Us3Cq5SrpHCh-7" edge="1">
          <mxGeometry relative="1" as="geometry" />
        </mxCell>
        <mxCell id="97_k_bN5Us3Cq5SrpHCh-23" value="Get emails" style="edgeLabel;html=1;align=center;verticalAlign=middle;resizable=0;points=[];" parent="97_k_bN5Us3Cq5SrpHCh-16" vertex="1" connectable="0">
          <mxGeometry x="-0.3057" relative="1" as="geometry">
            <mxPoint as="offset" />
          </mxGeometry>
        </mxCell>
        <mxCell id="97_k_bN5Us3Cq5SrpHCh-17" style="edgeStyle=none;rounded=0;orthogonalLoop=1;jettySize=auto;html=1;exitX=1;exitY=0;exitDx=0;exitDy=105;exitPerimeter=0;entryX=0;entryY=0.5;entryDx=0;entryDy=0;startArrow=classic;startFill=1;" parent="WIyWlLk6GJQsqaUBKTNV-1" source="97_k_bN5Us3Cq5SrpHCh-8" target="97_k_bN5Us3Cq5SrpHCh-7" edge="1">
          <mxGeometry relative="1" as="geometry" />
        </mxCell>
        <mxCell id="97_k_bN5Us3Cq5SrpHCh-24" value="Drop email" style="edgeLabel;html=1;align=center;verticalAlign=middle;resizable=0;points=[];" parent="97_k_bN5Us3Cq5SrpHCh-17" vertex="1" connectable="0">
          <mxGeometry x="-0.4048" y="-1" relative="1" as="geometry">
            <mxPoint x="36" as="offset" />
          </mxGeometry>
        </mxCell>
        <mxCell id="97_k_bN5Us3Cq5SrpHCh-18" style="edgeStyle=none;rounded=0;orthogonalLoop=1;jettySize=auto;html=1;exitX=1;exitY=1;exitDx=0;exitDy=-15;exitPerimeter=0;entryX=0;entryY=0.75;entryDx=0;entryDy=0;startArrow=classic;startFill=1;" parent="WIyWlLk6GJQsqaUBKTNV-1" source="97_k_bN5Us3Cq5SrpHCh-8" target="97_k_bN5Us3Cq5SrpHCh-7" edge="1">
          <mxGeometry relative="1" as="geometry" />
        </mxCell>
        <mxCell id="97_k_bN5Us3Cq5SrpHCh-26" value="Send email" style="edgeLabel;html=1;align=center;verticalAlign=middle;resizable=0;points=[];" parent="97_k_bN5Us3Cq5SrpHCh-18" vertex="1" connectable="0">
          <mxGeometry x="-0.2492" relative="1" as="geometry">
            <mxPoint as="offset" />
          </mxGeometry>
        </mxCell>
        <mxCell id="97_k_bN5Us3Cq5SrpHCh-8" value="Host" style="shape=cylinder3;whiteSpace=wrap;html=1;boundedLbl=1;backgroundOutline=1;size=15;" parent="WIyWlLk6GJQsqaUBKTNV-1" vertex="1">
          <mxGeometry x="30" y="390" width="140" height="150" as="geometry" />
        </mxCell>
        <mxCell id="97_k_bN5Us3Cq5SrpHCh-9" value="QQ/163 email Server" style="shape=cylinder3;whiteSpace=wrap;html=1;boundedLbl=1;backgroundOutline=1;size=13;" parent="WIyWlLk6GJQsqaUBKTNV-1" vertex="1">
          <mxGeometry x="30" y="630" width="200" height="200" as="geometry" />
        </mxCell>
        <mxCell id="97_k_bN5Us3Cq5SrpHCh-31" style="edgeStyle=none;rounded=0;orthogonalLoop=1;jettySize=auto;html=1;exitX=0;exitY=0.75;exitDx=0;exitDy=0;startArrow=classic;startFill=1;" parent="WIyWlLk6GJQsqaUBKTNV-1" source="97_k_bN5Us3Cq5SrpHCh-29" target="97_k_bN5Us3Cq5SrpHCh-9" edge="1">
          <mxGeometry relative="1" as="geometry" />
        </mxCell>
        <mxCell id="97_k_bN5Us3Cq5SrpHCh-35" value="Communicate" style="edgeLabel;html=1;align=center;verticalAlign=middle;resizable=0;points=[];" parent="97_k_bN5Us3Cq5SrpHCh-31" vertex="1" connectable="0">
          <mxGeometry x="0.4332" y="1" relative="1" as="geometry">
            <mxPoint x="-9" y="-21" as="offset" />
          </mxGeometry>
        </mxCell>
        <mxCell id="97_k_bN5Us3Cq5SrpHCh-53" value="" style="group" parent="WIyWlLk6GJQsqaUBKTNV-1" vertex="1" connectable="0">
          <mxGeometry x="630" y="610.0033333333332" width="70" height="40" as="geometry" />
        </mxCell>
        <mxCell id="97_k_bN5Us3Cq5SrpHCh-54" value="" style="rounded=0;whiteSpace=wrap;html=1;" parent="97_k_bN5Us3Cq5SrpHCh-53" vertex="1">
          <mxGeometry width="70" height="40" as="geometry" />
        </mxCell>
        <mxCell id="97_k_bN5Us3Cq5SrpHCh-55" value="EmailThread" style="text;html=1;strokeColor=none;fillColor=none;align=center;verticalAlign=middle;whiteSpace=wrap;rounded=0;" parent="97_k_bN5Us3Cq5SrpHCh-53" vertex="1">
          <mxGeometry x="14.999999999999993" y="5.4166666666667425" width="40" height="20" as="geometry" />
        </mxCell>
        <mxCell id="97_k_bN5Us3Cq5SrpHCh-59" value="" style="group" parent="WIyWlLk6GJQsqaUBKTNV-1" vertex="1" connectable="0">
          <mxGeometry x="720" y="580.0033333333332" width="70" height="40" as="geometry" />
        </mxCell>
        <mxCell id="97_k_bN5Us3Cq5SrpHCh-60" value="" style="rounded=0;whiteSpace=wrap;html=1;" parent="97_k_bN5Us3Cq5SrpHCh-59" vertex="1">
          <mxGeometry width="70" height="40" as="geometry" />
        </mxCell>
        <mxCell id="97_k_bN5Us3Cq5SrpHCh-61" value="EmailThread" style="text;html=1;strokeColor=none;fillColor=none;align=center;verticalAlign=middle;whiteSpace=wrap;rounded=0;" parent="97_k_bN5Us3Cq5SrpHCh-59" vertex="1">
          <mxGeometry x="14.999999999999993" y="5.4166666666667425" width="40" height="20" as="geometry" />
        </mxCell>
        <mxCell id="97_k_bN5Us3Cq5SrpHCh-62" value="" style="group" parent="WIyWlLk6GJQsqaUBKTNV-1" vertex="1" connectable="0">
          <mxGeometry x="720" y="640.0033333333332" width="70" height="40" as="geometry" />
        </mxCell>
        <mxCell id="97_k_bN5Us3Cq5SrpHCh-63" value="" style="rounded=0;whiteSpace=wrap;html=1;" parent="97_k_bN5Us3Cq5SrpHCh-62" vertex="1">
          <mxGeometry width="70" height="40" as="geometry" />
        </mxCell>
        <mxCell id="97_k_bN5Us3Cq5SrpHCh-64" value="EmailThread" style="text;html=1;strokeColor=none;fillColor=none;align=center;verticalAlign=middle;whiteSpace=wrap;rounded=0;" parent="97_k_bN5Us3Cq5SrpHCh-62" vertex="1">
          <mxGeometry x="14.999999999999993" y="5.4166666666667425" width="40" height="20" as="geometry" />
        </mxCell>
        <mxCell id="97_k_bN5Us3Cq5SrpHCh-65" style="edgeStyle=none;rounded=0;orthogonalLoop=1;jettySize=auto;html=1;exitX=1;exitY=0.75;exitDx=0;exitDy=0;entryX=0;entryY=0.5;entryDx=0;entryDy=0;startArrow=classic;startFill=1;" parent="WIyWlLk6GJQsqaUBKTNV-1" source="97_k_bN5Us3Cq5SrpHCh-4" target="97_k_bN5Us3Cq5SrpHCh-63" edge="1">
          <mxGeometry relative="1" as="geometry" />
        </mxCell>
        <mxCell id="97_k_bN5Us3Cq5SrpHCh-66" value="&amp;lt;&amp;lt;create&amp;gt;&amp;gt;" style="edgeLabel;html=1;align=center;verticalAlign=middle;resizable=0;points=[];" parent="97_k_bN5Us3Cq5SrpHCh-65" vertex="1" connectable="0">
          <mxGeometry x="-0.2869" y="-1" relative="1" as="geometry">
            <mxPoint x="16" y="13" as="offset" />
          </mxGeometry>
        </mxCell>
        <mxCell id="97_k_bN5Us3Cq5SrpHCh-67" value="&amp;lt;&amp;lt;using&amp;gt;&amp;gt;" style="edgeStyle=none;rounded=0;orthogonalLoop=1;jettySize=auto;html=1;exitX=1;exitY=0.5;exitDx=0;exitDy=0;entryX=0;entryY=0.5;entryDx=0;entryDy=0;startArrow=classic;startFill=1;" parent="WIyWlLk6GJQsqaUBKTNV-1" source="97_k_bN5Us3Cq5SrpHCh-63" target="97_k_bN5Us3Cq5SrpHCh-39" edge="1">
          <mxGeometry relative="1" as="geometry" />
        </mxCell>
        <mxCell id="GSkRoppKIcXRZAXzTMz4-0" value="&lt;font style=&quot;font-size: 26px&quot; color=&quot;#ff0000&quot;&gt;&lt;b&gt;HTTP&lt;/b&gt;&lt;/font&gt;" style="text;html=1;strokeColor=none;fillColor=none;align=center;verticalAlign=middle;whiteSpace=wrap;rounded=0;" vertex="1" parent="WIyWlLk6GJQsqaUBKTNV-1">
          <mxGeometry x="350" y="455" width="40" height="20" as="geometry" />
        </mxCell>
        <mxCell id="GSkRoppKIcXRZAXzTMz4-1" value="&lt;font style=&quot;font-size: 22px&quot; color=&quot;#ff0000&quot;&gt;&lt;b&gt;POP3/SMTP&lt;/b&gt;&lt;/font&gt;" style="text;html=1;strokeColor=none;fillColor=none;align=center;verticalAlign=middle;whiteSpace=wrap;rounded=0;" vertex="1" parent="WIyWlLk6GJQsqaUBKTNV-1">
          <mxGeometry x="370" y="740" width="40" height="20" as="geometry" />
        </mxCell>
      </root>
    </mxGraphModel>
  </diagram>
</mxfile>
